<svg xmlns="http://www.w3.org/2000/svg" width="12" height="46.993" viewBox="0 0 12 46.993">
  <path id="Rounded_Rectangle_4_copy_3" data-name="Rounded Rectangle 4 copy 3" d="M357.473,2614.469l-9.818-21.883a1.289,1.289,0,0,1-.11-.523.75.75,0,0,1-.136-.081,1.242,1.242,0,0,1-.3-1.446l9.818-22a.727.727,0,0,1,1.118-.387,1.242,1.242,0,0,1,.3,1.446l-9.608,21.531a.948.948,0,0,1,.335.411l9.818,21.883a1.23,1.23,0,0,1-.3,1.438.682.682,0,0,1-.409.141A.806.806,0,0,1,357.473,2614.469Z" transform="translate(-347 -2568.003)" fill="#c99c47"/>
</svg>
