<svg xmlns="http://www.w3.org/2000/svg" width="12" height="46.993" viewBox="0 0 12 46.993">
  <path id="Rounded_Rectangle_4_copy_3" data-name="Rounded Rectangle 4 copy 3" d="M1561.409,2614.855a1.23,1.23,0,0,1-.3-1.438l9.818-21.883a.948.948,0,0,1,.335-.411l-9.608-21.531a1.242,1.242,0,0,1,.3-1.446.727.727,0,0,1,1.118.387l9.818,22a1.242,1.242,0,0,1-.3,1.446.746.746,0,0,1-.136.081,1.29,1.29,0,0,1-.11.523l-9.818,21.883a.805.805,0,0,1-.709.527A.682.682,0,0,1,1561.409,2614.855Z" transform="translate(-1561 -2568.003)" fill="#c99c47"/>
</svg>
